<?xml version="1.0" encoding="UTF-8"?>
<svg width="816px" height="352px" viewBox="0 0 816 352" version="1.1" xmlns="http://www.w3.org/2000/svg" xmlns:xlink="http://www.w3.org/1999/xlink">
    <title>Desktop HD</title>
    <g id="Desktop-HD" stroke="none" stroke-width="1" fill="none" fill-rule="evenodd">
        <path d="M189,11.3205081 L285.750598,67.1794919 C304.314663,77.8974596 315.750598,97.7050808 315.750598,119.141016 L315.750598,230.858984 C315.750598,252.294919 304.314663,272.10254 285.750598,282.820508 L189,338.679492 C170.435935,349.39746 147.564065,349.39746 129,338.679492 L32.2494019,282.820508 C13.6853373,272.10254 2.24940192,252.294919 2.24940192,230.858984 L2.24940192,119.141016 C2.24940192,97.7050808 13.6853373,77.8974596 32.2494019,67.1794919 L129,11.3205081 C147.564065,0.602540378 170.435935,0.602540378 189,11.3205081 Z M388.578125,115.414063 C403.453125,115.742188 416.386719,119.871094 427.378906,127.800781 L427.378906,127.800781 L417.289062,142.730469 C408.320312,136.824219 398.449219,133.761719 387.675781,133.542969 C382.097656,133.542969 377.449219,134.9375 373.730469,137.726563 C369.847656,140.625 367.851562,144.945313 367.742188,150.6875 C367.742188,154.132813 369.082031,157.25 371.761719,160.039063 C374.441406,162.882813 378.734375,164.851563 384.640625,165.945313 C387.921875,166.492188 392.40625,167.121094 398.09375,167.832031 C409.304688,169.363281 417.589844,173.382813 422.949219,179.890625 C428.253906,186.289063 430.90625,193.726563 430.90625,202.203125 C430.304688,225.0625 416.304688,236.65625 388.90625,236.984375 C371.1875,236.984375 355.957031,231.515625 343.214844,220.578125 L343.214844,220.578125 L355.109375,206.960938 C364.625,214.78125 375.945312,218.746094 389.070312,218.855469 C404.601562,218.636719 412.476562,213.085938 412.695312,202.203125 C412.804688,193.289063 407.609375,187.929688 397.109375,186.125 C392.296875,185.46875 387.019531,184.730469 381.277344,183.910156 C370.996094,182.214844 363.175781,178.414063 357.816406,172.507813 C352.292969,166.4375 349.53125,159.054688 349.53125,150.359375 C349.53125,139.914063 353.003906,131.492188 359.949219,125.09375 C366.675781,118.75 376.21875,115.523438 388.578125,115.414063 Z M768.367502,115.414063 C779.906565,115.523438 789.312815,118.941406 796.586252,125.667969 C803.85969,132.449219 808.45344,140.84375 810.367502,150.851563 L810.367502,150.851563 L791.17219,150.851563 C789.695627,146.039063 787.01594,141.9375 783.133127,138.546875 C779.086252,135.320313 774.164377,133.652344 768.367502,133.542969 C764.101877,133.652344 760.437815,134.5 757.375315,136.085938 C754.258127,137.726563 751.742502,139.777344 749.82844,142.238281 C747.476877,144.808594 745.918283,148.117188 745.152658,152.164063 C744.277658,156.429688 743.840158,164.441406 743.840158,176.199219 L743.840158,176.199219 L743.840609,176.84852 C743.856512,188.250433 744.293862,195.99103 745.152658,200.070313 C745.918283,204.226563 747.476877,207.589844 749.82844,210.160156 C751.742502,212.621094 754.258127,214.617188 757.375315,216.148438 C760.437815,217.953125 764.101877,218.855469 768.367502,218.855469 C778.539377,218.855469 786.14094,213.414063 791.17219,202.53125 L791.17219,202.53125 L810.367502,202.53125 C807.742502,213.632813 802.738596,222.164063 795.355783,228.125 C787.754221,234.03125 778.758127,236.984375 768.367502,236.984375 C758.961252,236.765625 751.113596,234.46875 744.824533,230.09375 C738.426096,225.882813 733.777658,221.015625 730.879221,215.492188 C730.004221,213.6875 729.211252,211.964844 728.500315,210.324219 C727.844065,208.628906 727.29719,206.496094 726.85969,203.925781 C726.039377,199.113281 725.629221,189.871094 725.629221,176.199219 L725.629221,176.199219 L725.629221,175.496875 C725.643242,161.994765 726.053281,152.932005 726.85969,148.308594 C727.73469,143.605469 729.074533,139.804688 730.879221,136.90625 C733.777658,131.382813 738.426096,126.460938 744.824533,122.140625 C751.113596,117.765625 758.961252,115.523438 768.367502,115.414063 Z M66.3,117.56 L47.04,117.56 L47.04,236 L69.18,236 L69.18,168.86 L105,234.02 L150.72,135.56 L150.72,228.62 L143.16,228.62 L143.16,169.4 L135.78,185.42 L135.78,236 L158.1,236 L158.1,117.56 L150.72,117.56 L104.64,217.82 L61.8,140.06 L61.8,228.62 L54.42,228.62 L54.42,124.94 L61.8,124.94 L103.92,201.26 L142.44,117.56 L134.34,117.56 L103.38,185.06 L66.3,117.56 Z M195.9,117.56 L169.26,117.56 L215.34,189.02 L215.34,236 L237.66,236 L237.66,191.54 L230.28,191.54 L230.28,228.62 L222.9,228.62 L222.9,186.86 L183.12,124.94 L192.12,124.94 L229.92,184.16 L237.3,184.16 L280.32,117.56 L253.68,117.56 L229.2,156.26 L233.7,162.92 L257.64,124.94 L266.82,124.94 L233.7,176.24 L195.9,117.56 Z M490.252032,116.398438 C494.955157,116.398438 499.494219,116.835938 503.869219,117.710938 C508.244219,118.859375 512.673907,121.210938 517.158282,124.765625 C520.931719,127.445313 523.994219,131.273438 526.345782,136.25 C528.806719,141.0625 530.037188,146.75 530.037188,153.3125 C530.037188,162.171875 526.920001,170.238281 520.685626,177.511719 C514.287188,185.167969 504.935626,189.105469 492.630938,189.324219 L492.630938,189.324219 L465.068438,189.324219 L465.068438,236 L446.939532,236 L446.939532,116.398438 Z M577.160314,116.398438 L620.636876,236 L601.523595,236 L592.254064,209.257813 L546.890782,209.257813 L537.703282,236 L518.50797,236 L561.984532,116.398438 L577.160314,116.398438 Z M677.029533,116.398438 C686.982658,116.398438 695.103752,119.023438 701.392814,124.273438 C708.994377,130.234375 712.95922,138.738281 713.287345,149.785156 C713.068595,166.027344 705.357658,177.074219 690.154533,182.925781 L690.154533,182.925781 L717.881095,236 L696.306877,236 L671.61547,184.894531 L648.482658,184.894531 L648.482658,236 L630.353752,236 L630.353752,116.398438 Z M569.777501,140.925781 L569.449376,140.925781 L552.140782,193.179688 L587.086095,193.179688 L569.777501,140.925781 Z M491.761449,133.535958 L491.236407,133.542969 L465.068438,133.542969 L465.068438,172.179688 L491.892657,172.179688 C498.619219,172.070313 503.677813,169.992188 507.068438,165.945313 C510.295001,162.007813 511.908282,157.632813 511.908282,152.820313 C511.908282,148.828125 511.252032,145.464844 509.939532,142.730469 C508.572344,140.269531 506.658282,138.328125 504.197344,136.90625 C500.478594,134.554688 496.158282,133.433594 491.236407,133.542969 Z M676.86547,132.558594 L648.482658,132.558594 L648.482658,168.816406 L675.881095,168.816406 C682.662345,168.707031 687.748283,166.738281 691.138908,162.910156 C694.474845,159.355469 696.142814,154.980469 696.142814,149.785156 C696.033439,143.550781 694.037345,139.039063 690.154533,136.25 C687.092033,133.789063 682.662345,132.558594 676.86547,132.558594 L676.86547,132.558594 Z" id="Combined-Shape" fill="#000000"></path>
    </g>
</svg>